<svg xmlns="http://www.w3.org/2000/svg" width="1024" height="1024" viewBox="0 0 1024 1024" fill="none">
  <defs>
    <linearGradient id="bg" x1="96" y1="96" x2="928" y2="928" gradientUnits="userSpaceOnUse">
      <stop offset="0" stop-color="#0F5FF4"/>
      <stop offset="1" stop-color="#1AA7FF"/>
    </linearGradient>
    <linearGradient id="folderTop" x1="208" y1="274" x2="828" y2="448" gradientUnits="userSpaceOnUse">
      <stop offset="0" stop-color="#FFE28A"/>
      <stop offset="1" stop-color="#FFC452"/>
    </linearGradient>
    <linearGradient id="folderBody" x1="208" y1="350" x2="828" y2="766" gradientUnits="userSpaceOnUse">
      <stop offset="0" stop-color="#FFCA5A"/>
      <stop offset="1" stop-color="#F2A328"/>
    </linearGradient>
    <linearGradient id="glass" x1="456" y1="508" x2="708" y2="702" gradientUnits="userSpaceOnUse">
      <stop offset="0" stop-color="#FFFFFF" stop-opacity="0.95"/>
      <stop offset="1" stop-color="#DFF0FF" stop-opacity="0.9"/>
    </linearGradient>
    <filter id="shadow" x="180" y="230" width="686" height="594" filterUnits="userSpaceOnUse" color-interpolation-filters="sRGB">
      <feDropShadow dx="0" dy="20" stdDeviation="18" flood-opacity="0.25"/>
    </filter>
  </defs>

  <rect x="96" y="96" width="832" height="832" rx="220" fill="url(#bg)"/>

  <g opacity="0.18">
    <path d="M880 190C760 210 655 325 646 468C638 604 719 736 841 784" stroke="white" stroke-width="40" stroke-linecap="round"/>
    <path d="M162 778C268 804 398 764 468 669" stroke="white" stroke-width="36" stroke-linecap="round"/>
  </g>

  <g filter="url(#shadow)">
    <path d="M208 382C208 338 244 302 288 302H412C438 302 456 286 468 266C480 246 502 230 530 230H748C792 230 828 266 828 310V392H208V382Z" fill="url(#folderTop)"/>
    <rect x="208" y="342" width="620" height="430" rx="94" fill="url(#folderBody)"/>
    <path d="M274 410H762" stroke="#F7B24B" stroke-width="26" stroke-linecap="round" opacity="0.55"/>
  </g>

  <circle cx="574" cy="562" r="142" fill="url(#glass)"/>
  <circle cx="574" cy="562" r="114" fill="none" stroke="#0F5FF4" stroke-width="32"/>
  <path d="M664 648L770 754" stroke="#0F5FF4" stroke-width="44" stroke-linecap="round"/>
  <circle cx="530" cy="520" r="24" fill="white" opacity="0.85"/>
</svg>
